<?xml version="1.0" encoding="utf-8"?>
<!-- Generator: Adobe Illustrator 18.1.0, SVG Export Plug-In . SVG Version: 6.00 Build 0)  -->
<svg version="1.1" id="Layer_1" xmlns="http://www.w3.org/2000/svg" xmlns:xlink="http://www.w3.org/1999/xlink" x="0px" y="0px"
	 viewBox="0 0 300 50" enable-background="new 0 0 300 50" xml:space="preserve">
<g>
	<path fill="none" d="M181,24.3c-0.5-0.4-1.2-0.6-2-0.6c-0.9,0-1.6,0.3-2.1,0.8s-0.8,1-0.9,1.5h5.7C181.8,25.3,181.5,24.8,181,24.3z
		"/>
	<path fill="none" d="M134.9,36c-0.2,0.3-0.6,0.7-0.9,0.9c0.3,0,0.7-0.1,1-0.1L134.9,36L134.9,36z"/>
	<path fill="none" d="M242.9,35.9c-0.3,0.4-0.7,0.8-1.2,1.2c0.4,0,0.8,0,1.2,0L242.9,35.9L242.9,35.9z"/>
	<path fill="none" d="M203.8,36.3v-8.4c0-1-0.2-1.6-0.5-2c-0.3-0.4-0.8-0.6-1.3-0.6c-0.6,0-1,0.2-1.4,0.7c-0.3,0.4-0.5,1.1-0.5,1.9
		v8.6"/>
	<path fill="none" d="M68.3,26.4c-0.5-0.4-1.2-0.6-2-0.6c-0.9,0-1.6,0.3-2.1,0.8s-0.8,1-0.9,1.5h5.7C69.1,27.4,68.8,26.9,68.3,26.4z
		"/>
	<path fill="none" d="M134.5,28.4c0-0.8-0.3-1.6-0.9-2.2c-0.6-0.6-1.4-0.9-2.4-0.9c-1,0-1.8,0.3-2.3,0.9c-0.5,0.6-0.8,1.4-0.8,2.2
		c0,0.9,0.3,1.7,0.8,2.3c0.5,0.6,1.3,0.9,2.3,0.9c1,0,1.8-0.3,2.4-0.9C134.2,30.1,134.5,29.3,134.5,28.4z"/>
	<path fill="none" d="M280.1,23.7c-0.9,0-1.6,0.3-2.1,0.8s-0.8,1-0.9,1.5h5.7c0-0.7-0.2-1.2-0.7-1.7
		C281.6,23.9,280.9,23.7,280.1,23.7z"/>
	<path fill="none" d="M44,28c-0.3-0.4-0.8-0.6-1.3-0.6c-0.5,0-0.9,0.2-1.3,0.6c-0.4,0.4-0.6,1.1-0.6,2v8.6c1.2,0,2.4,0,3.7,0V30
		C44.5,29.1,44.3,28.4,44,28z"/>
	<path fill="#8F99A4" d="M24.7,38.8V21.8H31v-7.2H9.9v7.2h6.3v18.3h1.7c1-0.3,2-0.7,3-0.9C22.1,38.9,23.4,38.8,24.7,38.8z"/>
	<path fill="#8F99A4" d="M40.8,30c0-0.9,0.2-1.6,0.6-2c0.4-0.4,0.8-0.6,1.3-0.6c0.6,0,1,0.2,1.3,0.6c0.3,0.4,0.5,1.1,0.5,2v8.6
		c2.8,0,5.5,0,8.3-0.1v-10c0-0.9-0.1-1.9-0.3-2.8s-0.6-1.8-1.1-2.5c-0.5-0.8-1.2-1.4-2.1-1.9c-0.9-0.5-2-0.7-3.3-0.7
		c-1.2,0-2.2,0.3-3.1,0.8c-0.9,0.5-1.6,1.1-2,1.8h-0.1V12.9h-8.3v25.8c2.8,0,5.5,0,8.3-0.1V30z"/>
	<path fill="#8F99A4" d="M72,39.6c1.6-0.8,2.8-1.9,3.7-3.2l-5.9-3c-0.3,0.3-0.7,0.6-1.2,0.9c-0.5,0.3-1.2,0.4-1.9,0.4
		c-0.4,0-0.8,0-1.1-0.1s-0.7-0.2-1-0.4c-0.3-0.2-0.6-0.4-0.8-0.7c-0.2-0.3-0.3-0.6-0.3-0.9h12.7c0-0.2,0-0.5,0.1-0.8s0-0.6,0-1
		c0-1.5-0.2-2.9-0.7-4.1c-0.5-1.3-1.2-2.4-2-3.3c-0.9-0.9-1.9-1.6-3.1-2.2s-2.6-0.8-4.1-0.8c-1.5,0-2.8,0.2-4.1,0.7
		c-1.3,0.5-2.4,1.2-3.3,2c-0.9,0.9-1.7,1.9-2.2,3.2c-0.6,1.3-0.8,2.7-0.8,4.2c0,1.7,0.3,3.2,0.9,4.4s1.4,2.3,2.4,3.2
		c0.1,0.1,0.3,0.2,0.5,0.4c4.2,0.1,8.4,0.3,12.4,1.1C71.9,39.6,72,39.6,72,39.6z M64.2,26.6c0.5-0.5,1.2-0.8,2.1-0.8
		c0.8,0,1.5,0.2,2,0.6c0.5,0.4,0.7,1,0.7,1.7h-5.7C63.4,27.6,63.7,27.1,64.2,26.6z"/>
	<path fill="#8F99A4" d="M134.9,36L134.9,36l0.1,0.9c1.5-0.1,3-0.2,4.5-0.3c1,0,2-0.1,3-0.1V10.8h-8.3v9.8H134
		c-0.6-0.6-1.3-1.1-2.2-1.5c-0.9-0.3-1.8-0.5-2.7-0.5c-1.4,0-2.7,0.3-3.7,0.9c-1.1,0.6-2,1.3-2.7,2.3c-0.7,0.9-1.3,2-1.6,3.2
		c0,0.1,0,0.2-0.1,0.3c0.6,0.5,1.2,0.8,1.8,1.2c0.7,0.5,1.3,1.1,1.7,2c0.3,0.9,0.1,2.2-0.5,2.7c-0.4,0.3-0.9,0.3-1.4,0.6
		c-0.6,0.5-0.7,1.5-0.7,2.5c0.2,0.4,0.5,0.9,0.8,1.2c0.7,0.9,1.6,1.7,2.7,2.3c0.1,0.1,0.3,0.1,0.4,0.2c2.7-0.4,5.5-0.6,8.2-0.9
		C134.3,36.6,134.6,36.3,134.9,36z M129,30.7c-0.5-0.6-0.8-1.4-0.8-2.3c0-0.8,0.3-1.6,0.8-2.2c0.5-0.6,1.3-0.9,2.3-0.9
		c1,0,1.8,0.3,2.4,0.9c0.6,0.6,0.9,1.4,0.9,2.2c0,0.9-0.3,1.6-0.9,2.3c-0.6,0.6-1.4,0.9-2.4,0.9C130.3,31.6,129.5,31.3,129,30.7z"/>
	<path fill="#8F99A4" d="M160.3,36.9c0.1,0,0.2,0.1,0.4,0.1l6.9-17.9h-8.9l-2.6,10.2h-0.1L153.2,19H144l6.6,17.3c0.1,0,0.2,0,0.3,0
		C154.1,36.3,157.2,36.3,160.3,36.9z"/>
	<path fill="#8F99A4" d="M185.4,37.1c1.3-0.7,2.3-1.7,3-2.9l-5.9-3c-0.3,0.3-0.7,0.6-1.2,0.9c-0.5,0.3-1.2,0.4-1.9,0.4
		c-0.4,0-0.8,0-1.1-0.1c-0.4-0.1-0.7-0.2-1-0.4c-0.3-0.2-0.6-0.4-0.8-0.7c-0.2-0.3-0.3-0.6-0.3-0.9h12.7c0-0.2,0-0.5,0.1-0.8
		c0-0.3,0-0.6,0-1c0-1.5-0.2-2.9-0.7-4.1c-0.5-1.3-1.2-2.4-2-3.3c-0.9-0.9-1.9-1.6-3.1-2.2c-1.2-0.5-2.6-0.8-4.1-0.8
		c-1.5,0-2.8,0.2-4.1,0.7c-1.3,0.5-2.4,1.2-3.3,2c-0.9,0.9-1.7,1.9-2.2,3.2c-0.6,1.3-0.8,2.7-0.8,4.2c0,1.7,0.3,3.2,0.9,4.4
		c0.6,1.3,1.4,2.3,2.4,3.2c0.8,0.7,1.7,1.2,2.7,1.7c0.3,0,0.7-0.1,1-0.1C178.7,37.4,182,37.3,185.4,37.1z M176.9,24.4
		c0.5-0.5,1.2-0.8,2.1-0.8c0.8,0,1.5,0.2,2,0.6c0.5,0.4,0.7,1,0.7,1.7H176C176.1,25.5,176.4,24.9,176.9,24.4z"/>
	<path fill="#8F99A4" d="M200.2,27.9c0-0.8,0.2-1.5,0.5-1.9c0.3-0.4,0.8-0.7,1.4-0.7c0.6,0,1,0.2,1.3,0.6c0.3,0.4,0.5,1.1,0.5,2v8.4
		c1.5-0.1,3-0.1,4.5-0.2c1.3-0.1,2.6-0.1,3.8,0.2v-9.9c0-0.9-0.1-1.9-0.3-2.8c-0.2-0.9-0.6-1.8-1.1-2.5c-0.5-0.8-1.2-1.4-2.1-1.9
		c-0.9-0.5-2-0.7-3.3-0.7c-1.2,0-2.3,0.3-3.2,0.8c-0.9,0.5-1.7,1.1-2.1,1.8H200V19h-8.1v17.8c2.8-0.1,5.5-0.2,8.3-0.4V27.9z"/>
	<path fill="#8F99A4" d="M228.4,32.1c-0.2,0-0.4,0.1-0.7,0.1c-0.3,0-0.6,0.1-0.8,0.1c-0.7,0-1.2-0.2-1.6-0.5
		c-0.4-0.3-0.6-0.9-0.6-1.9v-5h4.1V19h-4.1v-4.2h-8.1V19h-2.6V25h2.7v6.8c0,2.3,0.6,4,1.8,5.1c0.2,0.2,0.4,0.3,0.7,0.5
		c3.1,0,6.2-0.1,9.3-0.1V32.1z"/>
	<path fill="#8F99A4" d="M242.9,35.9L242.9,35.9l0.1,1.2c2.7,0,5.4-0.1,8.1-0.1V19h-8.3v10c0,0.8-0.2,1.5-0.5,1.9
		c-0.4,0.4-0.8,0.7-1.4,0.7c-0.6,0-1.1-0.2-1.4-0.6c-0.3-0.4-0.5-1.1-0.5-2V19h-8.3v11.5c0,0.9,0.1,1.9,0.3,2.8
		c0.2,0.9,0.6,1.8,1.1,2.6c0.3,0.5,0.7,0.9,1.2,1.2c2.8,0,5.6-0.1,8.5-0.1C242.2,36.7,242.6,36.3,242.9,35.9z"/>
	<path fill="#8F99A4" d="M263.2,28.8c0-0.9,0.3-1.7,1-2.3s1.5-0.9,2.6-0.9c0.3,0,0.6,0,0.9,0.1c0.3,0,0.6,0.1,0.9,0.2l0.6-7.1
		c-0.4-0.1-0.9-0.2-1.6-0.2c-1.1,0-2,0.3-2.8,0.8s-1.4,1.1-1.8,1.9h-0.1V19h-8v17.9c2.8,0,5.5,0,8.3-0.1V28.8z"/>
	<path fill="#8F99A4" d="M270.4,32.9c0.6,1.3,1.4,2.3,2.4,3.2c0.3,0.3,0.6,0.5,0.9,0.7c2.2,0,4.5,0,6.7,0c1.5,0,3.4,0.3,4.6,1.1
		c0.3-0.1,0.5-0.2,0.8-0.3c1.6-0.8,2.8-1.9,3.7-3.2l-5.9-3c-0.3,0.3-0.7,0.6-1.2,0.9c-0.5,0.3-1.2,0.4-1.9,0.4c-0.4,0-0.8,0-1.1-0.1
		c-0.4-0.1-0.7-0.2-1-0.4c-0.3-0.2-0.6-0.4-0.8-0.7c-0.2-0.3-0.3-0.6-0.3-0.9h12.7c0-0.2,0-0.5,0.1-0.8c0-0.3,0-0.6,0-1
		c0-1.5-0.2-2.9-0.7-4.1c-0.5-1.3-1.2-2.4-2-3.3c-0.9-0.9-1.9-1.6-3.1-2.2c-1.2-0.5-2.6-0.8-4.1-0.8c-1.5,0-2.8,0.2-4.1,0.7
		c-1.3,0.5-2.4,1.2-3.3,2c-0.9,0.9-1.7,1.9-2.2,3.2c-0.6,1.3-0.8,2.7-0.8,4.2 M277.1,26c0.1-0.5,0.4-1,0.9-1.5s1.2-0.8,2.1-0.8
		c0.8,0,1.5,0.2,2,0.6c0.5,0.4,0.7,1,0.7,1.7H277.1z"/>
	<path fill="#8F99A4" d="M122.6,31.6c0.4-0.3,0.9-0.3,1.4-0.6c0.7-0.5,0.8-1.7,0.5-2.7c-0.3-0.9-1-1.5-1.7-2
		c-0.6-0.4-1.3-0.7-1.8-1.2c-0.1-0.1-0.1-0.1-0.2-0.2c-1.3-1.2-1.9-3.4-3.1-4.9c-1.1-1.4-2.6-2.2-3.7-3.7c-1.7-2.2-2.3-6-4.6-7.1
		c-0.2-0.1-0.4-0.2-0.6-0.1c-0.3,0-0.5,0.2-0.7,0.4c-2.7,2.1-5.1,4.8-7.1,8c-0.5,0.9-1,1.8-1.7,2.5c-0.8,1-1.9,1.7-2.7,2.7
		c-0.5,0.6-0.9,1.4-1.4,2.1l-7.3,8.9c-1.8,1.6-3.6,2.5-4.9,4.5c1.1,0.4,2.3,0,3.4-0.4c1.5-0.5,2.9-1.1,4.4-1.6
		c-0.1,1.6-0.1,3.2-0.2,4.8c0.9,0,1.8-0.2,2.6-0.6c0.6-0.3,1.2-0.8,1.8-1.2c1.5-1.1,3.1-2.3,4.6-3.4c1.2-0.9,2.3-1.7,3.7-2
		c1.3-0.3,2.8,0.1,3.7,1.4c0.2,0.3,0.3,0.6,0.5,0.8c0.2,0.2,0.5,0.4,0.7,0.5c2.1,0.8,4.5,0.1,6-1.9c0.1-0.2,0.3-0.4,0.5-0.5
		c0.4-0.2,0.8,0.2,1.1,0.5c1.6,1.7,3.5,2.9,5.4,3.5c0.8-0.5,0.8-2,0.7-3.2c0-0.2,0-0.5-0.1-0.7C121.8,33.1,121.9,32,122.6,31.6z"/>
	<path fill="#FFFFFF" d="M20.9,39.2c-1,0.2-2,0.6-3,0.9"/>
	<path fill="#FFFFFF" d="M74.2,40.2c-0.8-0.2-1.5-0.3-2.3-0.5c-4.1-0.8-8.3-1-12.4-1.1c-2.1,0-4.1,0-6.2,0c-0.2,0-0.3,0-0.5,0
		c-2.8,0-5.5,0-8.3,0.1c-1.2,0-2.4,0-3.7,0c-2.8,0-5.5,0-8.3,0.1"/>
	<path fill="#FFFFFF" d="M142.4,36.5c-1,0-2,0-3,0.1c-1.5,0.1-3,0.2-4.5,0.3c-0.3,0-0.7,0.1-1,0.1c-2.7,0.2-5.5,0.5-8.2,0.9"/>
	<path fill="#FFFFFF" d="M160.6,37c-0.1,0-0.2-0.1-0.4-0.1c-3.1-0.6-6.2-0.6-9.3-0.5c-0.1,0-0.2,0-0.3,0"/>
	<path fill="#FFFFFF" d="M186.4,37.1c-0.4,0-0.7,0-1.1,0c-3.3,0.1-6.6,0.3-9.9,0.6c-0.3,0-0.7,0.1-1,0.1"/>
	<path fill="#FFFFFF" d="M200.2,36.5c-2.8,0.1-5.5,0.2-8.3,0.4"/>
	<path fill="#FFFFFF" d="M213,36.6c-0.3-0.1-0.6-0.2-0.8-0.3c-1.2-0.3-2.5-0.2-3.8-0.2c-1.5,0.1-3,0.1-4.5,0.2"/>
	<path fill="#FFFFFF" d="M228.4,37.2c-3.1,0-6.2,0.1-9.3,0.1c-0.1,0-0.3,0-0.4,0"/>
	<path fill="#FFFFFF" d="M251,36.9c-2.7,0-5.4,0.1-8.1,0.1c-0.4,0-0.8,0-1.2,0c-2.8,0-5.6,0.1-8.5,0.1"/>
	<path fill="#FFFFFF" d="M263.2,36.9c-2.8,0-5.5,0-8.3,0.1"/>
	<path fill="#FFFFFF" d="M285,37.8c-1.3-0.7-3.1-1.1-4.6-1.1c-2.2,0-4.5,0-6.7,0"/>
</g>
</svg>
